<svg width="100" height="100" viewBox="0 0 100 100" fill="none" xmlns="http://www.w3.org/2000/svg">
<path d="M48.7574 9C43.5364 9 38.3665 10.0284 33.5429 12.0264C28.7193 14.0243 24.3365 16.9529 20.6447 20.6447C16.9529 24.3365 14.0243 28.7193 12.0264 33.5429C10.0284 38.3665 9 43.5364 9 48.7574L48.7574 48.7574V9Z" stroke="#1A1A1A" stroke-width="0.5" stroke-dasharray="2.6 2.6"/>
<path d="M48.757 18.939C44.8413 18.939 40.9638 19.7102 37.3461 21.2087C33.7284 22.7072 30.4413 24.9036 27.6725 27.6725C24.9036 30.4413 22.7072 33.7284 21.2087 37.3461C19.7102 40.9638 18.939 44.8413 18.939 48.757" stroke="#1A1A1A" stroke-width="0.5" stroke-dasharray="2.6 2.6"/>
<path d="M51.2419 13.9702C55.8103 13.9702 60.334 14.87 64.5546 16.6183C68.7753 18.3665 72.6102 20.929 75.8406 24.1593C79.0709 27.3896 81.6334 31.2246 83.3816 35.4453C85.1299 39.6659 86.0297 44.1896 86.0297 48.7579L51.2419 48.7579L51.2419 13.9702Z" stroke="#1A1A1A" stroke-width="0.5" stroke-dasharray="2.6 2.6"/>
<path d="M51.2409 91C56.4619 91 61.6318 89.9716 66.4554 87.9736C71.279 85.9757 75.6618 83.0471 79.3536 79.3553C83.0454 75.6635 85.9739 71.2807 87.9719 66.4571C89.9699 61.6335 90.9983 56.4636 90.9983 51.2426L51.2409 51.2426V91Z" stroke="#1A1A1A" stroke-width="0.5" stroke-dasharray="2.6 2.6"/>
<path d="M48.7563 86.0303C44.188 86.0303 39.6643 85.1305 35.4437 83.3822C31.223 81.634 27.388 79.0715 24.1577 75.8412C20.9274 72.6108 18.3649 68.7759 16.6167 64.5552C14.8684 60.3346 13.9686 55.8109 13.9686 51.2425L48.7563 51.2426L48.7563 86.0303Z" stroke="#1A1A1A" stroke-width="0.5" stroke-dasharray="2.6 2.6"/>
<path d="M51.2413 81.0608C55.157 81.0608 59.0345 80.2895 62.6522 78.791C66.2698 77.2925 69.557 75.0961 72.3258 72.3273C75.0947 69.5584 77.2911 66.2713 78.7896 62.6536C80.2881 59.0359 81.0593 55.1585 81.0593 51.2427L51.2413 51.2427V66.1518V81.0608Z" stroke="#1A1A1A" stroke-width="0.8"/>
</svg>
